M48
;GenerationSoftware,Autodesk,EAGLE,9.2.2*%
;CreationDate,2018-11-09T17:41:33Z*%
FMAT,2
ICI,OFF
METRIC,TZ,000.000
T6C0.350
T5C0.813
T4C0.965
T3C1.016
T2C3.300
T1C3.302
%
G90
M71
T1
X101600Y69596
T2
X127500Y75000
X7500Y25000
X7500Y75000
X127500Y25000
T3
X87630Y74930
X114300Y50800
X130810Y43180
X121920Y40640
X99060Y54610
X101600Y54610
X104140Y54610
X123190Y62230
X123190Y64770
X130810Y40640
X130810Y45720
X130810Y62230
X130810Y64770
X121920Y35560
X121920Y38100
X121920Y43180
X121920Y45720
X121920Y48260
X16510Y22860
X21590Y22860
X19050Y25400
X40640Y22860
X45720Y22860
X43180Y25400
X64770Y22860
X69850Y22860
X67310Y25400
X90170Y22860
X95250Y22860
X92710Y25400
X111760Y22860
X116840Y22860
X114300Y25400
X119380Y77470
X114300Y77470
X116840Y74930
X90170Y77470
X85090Y77470
X74930Y77470
X69850Y77470
X72390Y74930
X36830Y77470
X31750Y77470
X34290Y74930
X21590Y77470
X16510Y77470
X19050Y74930
X114300Y35560
X114300Y38100
X114300Y40640
X114300Y43180
X114300Y45720
X114300Y48260
T4
X48260Y62230
X5080Y62230
X15240Y64770
X12700Y62230
X15240Y62230
X8890Y52705
X11430Y52705
X13970Y52705
X16510Y52705
X19050Y52705
X43180Y64770
X45720Y64770
X48260Y64770
X50800Y64770
X53340Y64770
X55880Y64770
X58420Y64770
X10160Y62230
X60960Y64770
X60960Y49530
X58420Y49530
X55880Y49530
X53340Y49530
X50800Y49530
X48260Y49530
X12700Y64770
X10160Y64770
X43180Y49530
X5080Y49530
X7620Y64770
X5080Y64770
X2540Y49530
X2540Y64770
X38100Y49530
X38100Y64770
X40640Y49530
X7620Y49530
X10160Y49530
X12700Y49530
X15240Y49530
X17780Y49530
X20320Y49530
X22860Y49530
X25400Y49530
X27940Y49530
X30480Y49530
X33020Y64770
X33020Y49530
X35560Y49530
X35560Y64770
X30480Y64770
X45720Y49530
X27940Y64770
X25400Y64770
X22860Y64770
X20320Y64770
X17780Y64770
X40640Y64770
X48260Y52070
X48260Y57150
X48260Y59690
X48260Y54610
T5
X111760Y86360
X114300Y86360
X90170Y93980
X85090Y93980
X90170Y86360
X85090Y86360
X87630Y86360
X63500Y93980
X58420Y93980
X63500Y86360
X58420Y86360
X60960Y86360
X36830Y93980
X31750Y93980
X36830Y86360
X31750Y86360
X34290Y86360
X10160Y93980
X5080Y93980
X10160Y86360
X5080Y86360
X7620Y86360
X24130Y17780
X21590Y17780
X50800Y17780
X48260Y17780
X77470Y17780
X74930Y17780
X104140Y17780
X101600Y17780
X130810Y17780
X128270Y17780
X109220Y82550
X82550Y82550
X85090Y82550
X55880Y82550
X58420Y82550
X29210Y82550
X31750Y82550
X2540Y82550
X5080Y82550
X123190Y6350
X111760Y6350
X5080Y6350
X10160Y6350
X6350Y13970
X8890Y13970
X21590Y93980
X16510Y93980
X20320Y86360
X17780Y86360
X31750Y6350
X36830Y6350
X33020Y13970
X35560Y13970
X58420Y6350
X63500Y6350
X6350Y17780
X16510Y17780
X13970Y33020
X16510Y33020
X16510Y40640
X13970Y40640
X19050Y33020
X21590Y33020
X19050Y40640
X21590Y40640
X30480Y33020
X33020Y33020
X33020Y40640
X30480Y40640
X35560Y33020
X38100Y33020
X35560Y40640
X38100Y40640
X46990Y33020
X49530Y33020
X49530Y40640
X46990Y40640
X52070Y33020
X54610Y33020
X52070Y40640
X54610Y40640
X64770Y33020
X67310Y33020
X67310Y40640
X64770Y40640
X69850Y33020
X72390Y33020
X69850Y40640
X72390Y40640
X81280Y33020
X83820Y33020
X83820Y40640
X81280Y40640
X86360Y33020
X88900Y33020
X86360Y40640
X88900Y40640
X27940Y19050
X38100Y19050
X57150Y19050
X67310Y19050
X83820Y19050
X93980Y19050
X110490Y19050
X120650Y19050
X59690Y13970
X118110Y81280
X104140Y81280
X93980Y81280
X77470Y81280
X67310Y81280
X50800Y81280
X40640Y81280
X24130Y81280
X13970Y81280
X62230Y13970
X85090Y6350
X90170Y6350
X91440Y68580
X91440Y66040
X91440Y62230
X91440Y59690
X86360Y13970
X88900Y13970
X116840Y6350
X113030Y13970
X115570Y13970
X114300Y58420
X114300Y68580
X128270Y93980
X123190Y93980
X97790Y33020
X100330Y33020
X100330Y40640
X97790Y40640
X102870Y33020
X105410Y33020
X102870Y40640
X105410Y40640
X87630Y52070
X90170Y52070
X67310Y66040
X77470Y66040
X127000Y86360
X124460Y86360
X111760Y82550
X101600Y93980
X96520Y93980
X100330Y86360
X97790Y86360
X74930Y93980
X69850Y93980
X73660Y86360
X71120Y86360
X48260Y93980
X43180Y93980
X46990Y86360
X44450Y86360
X16510Y6350
X21590Y6350
X16510Y13970
X21590Y13970
X19050Y13970
X43180Y6350
X48260Y6350
X43180Y13970
X48260Y13970
X45720Y13970
X69850Y6350
X74930Y6350
X69850Y13970
X74930Y13970
X72390Y13970
X96520Y6350
X101600Y6350
X96520Y13970
X101600Y13970
X99060Y13970
X128270Y6350
X123190Y13970
X128270Y13970
X125730Y13970
X116840Y93980
X111760Y93980
X116840Y86360
X128270Y81280
T6
X58369Y59131
X62332Y49378
X73000Y49378
X88849Y62484
X53340Y41605
X87173Y62636
X78638Y55016
X60198Y55016
X88087Y29108
X45720Y50902
X42672Y21641
X58979Y52578
X91745Y73762
X59284Y55474
X103022Y25756
M30