G04 EAGLE Gerber RS-274X export*
G75*
%MOMM*%
%FSLAX34Y34*%
%LPD*%
%INTop Copper*%
%IPPOS*%
%AMOC8*
5,1,8,0,0,1.08239X$1,22.5*%
G01*
%ADD10C,1.320800*%
%ADD11P,1.429621X8X202.500000*%
%ADD12P,1.429621X8X22.500000*%
%ADD13C,1.473200*%
%ADD14C,1.524000*%
%ADD15P,1.429621X8X292.500000*%
%ADD16P,1.429621X8X112.500000*%
%ADD17P,1.924489X8X22.500000*%
%ADD18P,1.924489X8X202.500000*%
%ADD19C,0.152400*%
%ADD20C,0.756400*%


D10*
X50800Y56896D02*
X50800Y70104D01*
X101600Y70104D02*
X101600Y56896D01*
X63500Y133096D02*
X63500Y146304D01*
X88900Y146304D02*
X88900Y133096D01*
X215900Y933196D02*
X215900Y946404D01*
X165100Y946404D02*
X165100Y933196D01*
X203200Y870204D02*
X203200Y856996D01*
X177800Y856996D02*
X177800Y870204D01*
X317500Y70104D02*
X317500Y56896D01*
X368300Y56896D02*
X368300Y70104D01*
X330200Y133096D02*
X330200Y146304D01*
X355600Y146304D02*
X355600Y133096D01*
X584200Y70104D02*
X584200Y56896D01*
X635000Y56896D02*
X635000Y70104D01*
X596900Y133096D02*
X596900Y146304D01*
X622300Y146304D02*
X622300Y133096D01*
X850900Y70104D02*
X850900Y56896D01*
X901700Y56896D02*
X901700Y70104D01*
X863600Y133096D02*
X863600Y146304D01*
X889000Y146304D02*
X889000Y133096D01*
X1117600Y70104D02*
X1117600Y56896D01*
X1168400Y56896D02*
X1168400Y70104D01*
X1130300Y133096D02*
X1130300Y146304D01*
X1155700Y146304D02*
X1155700Y133096D01*
X1282700Y933196D02*
X1282700Y946404D01*
X1231900Y946404D02*
X1231900Y933196D01*
X1270000Y870204D02*
X1270000Y856996D01*
X1244600Y856996D02*
X1244600Y870204D01*
X1016000Y933196D02*
X1016000Y946404D01*
X965200Y946404D02*
X965200Y933196D01*
X1003300Y870204D02*
X1003300Y856996D01*
X977900Y856996D02*
X977900Y870204D01*
X749300Y933196D02*
X749300Y946404D01*
X698500Y946404D02*
X698500Y933196D01*
X736600Y870204D02*
X736600Y856996D01*
X711200Y856996D02*
X711200Y870204D01*
X482600Y933196D02*
X482600Y946404D01*
X431800Y946404D02*
X431800Y933196D01*
X469900Y870204D02*
X469900Y856996D01*
X444500Y856996D02*
X444500Y870204D01*
X165100Y70104D02*
X165100Y56896D01*
X215900Y56896D02*
X215900Y70104D01*
X165100Y133096D02*
X165100Y146304D01*
X215900Y146304D02*
X215900Y133096D01*
X190500Y133096D02*
X190500Y146304D01*
X431800Y70104D02*
X431800Y56896D01*
X482600Y56896D02*
X482600Y70104D01*
X431800Y133096D02*
X431800Y146304D01*
X482600Y146304D02*
X482600Y133096D01*
X457200Y133096D02*
X457200Y146304D01*
X698500Y70104D02*
X698500Y56896D01*
X749300Y56896D02*
X749300Y70104D01*
X698500Y133096D02*
X698500Y146304D01*
X749300Y146304D02*
X749300Y133096D01*
X723900Y133096D02*
X723900Y146304D01*
X965200Y70104D02*
X965200Y56896D01*
X1016000Y56896D02*
X1016000Y70104D01*
X965200Y133096D02*
X965200Y146304D01*
X1016000Y146304D02*
X1016000Y133096D01*
X990600Y133096D02*
X990600Y146304D01*
X1231900Y70104D02*
X1231900Y56896D01*
X1282700Y56896D02*
X1282700Y70104D01*
X1231900Y133096D02*
X1231900Y146304D01*
X1282700Y146304D02*
X1282700Y133096D01*
X1257300Y133096D02*
X1257300Y146304D01*
X1168400Y933196D02*
X1168400Y946404D01*
X1117600Y946404D02*
X1117600Y933196D01*
X1168400Y870204D02*
X1168400Y856996D01*
X1117600Y856996D02*
X1117600Y870204D01*
X1143000Y870204D02*
X1143000Y856996D01*
X901700Y933196D02*
X901700Y946404D01*
X850900Y946404D02*
X850900Y933196D01*
X901700Y870204D02*
X901700Y856996D01*
X850900Y856996D02*
X850900Y870204D01*
X876300Y870204D02*
X876300Y856996D01*
X635000Y933196D02*
X635000Y946404D01*
X584200Y946404D02*
X584200Y933196D01*
X635000Y870204D02*
X635000Y856996D01*
X584200Y856996D02*
X584200Y870204D01*
X609600Y870204D02*
X609600Y856996D01*
X368300Y933196D02*
X368300Y946404D01*
X317500Y946404D02*
X317500Y933196D01*
X368300Y870204D02*
X368300Y856996D01*
X317500Y856996D02*
X317500Y870204D01*
X342900Y870204D02*
X342900Y856996D01*
X101600Y933196D02*
X101600Y946404D01*
X50800Y946404D02*
X50800Y933196D01*
X101600Y870204D02*
X101600Y856996D01*
X50800Y856996D02*
X50800Y870204D01*
X76200Y870204D02*
X76200Y856996D01*
D11*
X241300Y177800D03*
X215900Y177800D03*
X508000Y177800D03*
X482600Y177800D03*
X774700Y177800D03*
X749300Y177800D03*
X1041400Y177800D03*
X1016000Y177800D03*
X1308100Y177800D03*
X1282700Y177800D03*
D12*
X1092200Y825500D03*
X1117600Y825500D03*
X825500Y825500D03*
X850900Y825500D03*
X558800Y825500D03*
X584200Y825500D03*
X292100Y825500D03*
X317500Y825500D03*
X25400Y825500D03*
X50800Y825500D03*
D13*
X76200Y495300D03*
X101600Y495300D03*
X127000Y495300D03*
X152400Y495300D03*
X177800Y495300D03*
X203200Y495300D03*
X228600Y495300D03*
X254000Y495300D03*
X279400Y495300D03*
X304800Y495300D03*
X330200Y495300D03*
X355600Y495300D03*
X355600Y647700D03*
X330200Y647700D03*
X304800Y647700D03*
X279400Y647700D03*
X254000Y647700D03*
X228600Y647700D03*
X203200Y647700D03*
X177800Y647700D03*
X152400Y647700D03*
X127000Y647700D03*
X101600Y647700D03*
X50800Y495300D03*
X76200Y647700D03*
X50800Y647700D03*
X25400Y495300D03*
X25400Y647700D03*
X381000Y495300D03*
X381000Y647700D03*
X406400Y495300D03*
X431800Y495300D03*
X457200Y495300D03*
X482600Y495300D03*
X508000Y495300D03*
X533400Y495300D03*
X558800Y495300D03*
X584200Y495300D03*
X609600Y495300D03*
X609600Y647700D03*
X584200Y647700D03*
X558800Y647700D03*
X533400Y647700D03*
X508000Y647700D03*
X482600Y647700D03*
X457200Y647700D03*
X431800Y647700D03*
X406400Y647700D03*
X482600Y520700D03*
X482600Y571500D03*
X482600Y596900D03*
X482600Y546100D03*
X482600Y622300D03*
X50800Y622300D03*
X101600Y622300D03*
X127000Y622300D03*
X152400Y622300D03*
X88900Y527050D03*
X114300Y527050D03*
X139700Y527050D03*
X165100Y527050D03*
X190500Y527050D03*
D12*
X63500Y177800D03*
X165100Y177800D03*
D10*
X139700Y323596D02*
X139700Y336804D01*
X165100Y336804D02*
X165100Y323596D01*
X165100Y399796D02*
X165100Y413004D01*
X139700Y413004D02*
X139700Y399796D01*
X190500Y336804D02*
X190500Y323596D01*
X215900Y323596D02*
X215900Y336804D01*
X190500Y399796D02*
X190500Y413004D01*
X215900Y413004D02*
X215900Y399796D01*
X304800Y336804D02*
X304800Y323596D01*
X330200Y323596D02*
X330200Y336804D01*
X330200Y399796D02*
X330200Y413004D01*
X304800Y413004D02*
X304800Y399796D01*
X355600Y336804D02*
X355600Y323596D01*
X381000Y323596D02*
X381000Y336804D01*
X355600Y399796D02*
X355600Y413004D01*
X381000Y413004D02*
X381000Y399796D01*
X469900Y336804D02*
X469900Y323596D01*
X495300Y323596D02*
X495300Y336804D01*
X495300Y399796D02*
X495300Y413004D01*
X469900Y413004D02*
X469900Y399796D01*
X520700Y336804D02*
X520700Y323596D01*
X546100Y323596D02*
X546100Y336804D01*
X520700Y399796D02*
X520700Y413004D01*
X546100Y413004D02*
X546100Y399796D01*
X647700Y336804D02*
X647700Y323596D01*
X673100Y323596D02*
X673100Y336804D01*
X673100Y399796D02*
X673100Y413004D01*
X647700Y413004D02*
X647700Y399796D01*
X698500Y336804D02*
X698500Y323596D01*
X723900Y323596D02*
X723900Y336804D01*
X698500Y399796D02*
X698500Y413004D01*
X723900Y413004D02*
X723900Y399796D01*
X812800Y336804D02*
X812800Y323596D01*
X838200Y323596D02*
X838200Y336804D01*
X838200Y399796D02*
X838200Y413004D01*
X812800Y413004D02*
X812800Y399796D01*
X863600Y336804D02*
X863600Y323596D01*
X889000Y323596D02*
X889000Y336804D01*
X863600Y399796D02*
X863600Y413004D01*
X889000Y413004D02*
X889000Y399796D01*
D12*
X279400Y190500D03*
X381000Y190500D03*
X571500Y190500D03*
X673100Y190500D03*
X838200Y190500D03*
X939800Y190500D03*
X1104900Y190500D03*
X1206500Y190500D03*
D11*
X1282700Y812800D03*
X1181100Y812800D03*
X1041400Y812800D03*
X939800Y812800D03*
X774700Y812800D03*
X673100Y812800D03*
X508000Y812800D03*
X406400Y812800D03*
X241300Y812800D03*
X139700Y812800D03*
D14*
X990600Y553720D02*
X990600Y538480D01*
X1016000Y538480D02*
X1016000Y553720D01*
X1041400Y553720D02*
X1041400Y538480D01*
D15*
X914400Y685800D03*
X914400Y660400D03*
X914400Y622300D03*
X914400Y596900D03*
D14*
X1224280Y622300D02*
X1239520Y622300D01*
X1239520Y647700D02*
X1224280Y647700D01*
X1300480Y406400D02*
X1315720Y406400D01*
X1315720Y431800D02*
X1300480Y431800D01*
X1300480Y457200D02*
X1315720Y457200D01*
D16*
X1143000Y584200D03*
X1143000Y685800D03*
D14*
X1300480Y622300D02*
X1315720Y622300D01*
X1315720Y647700D02*
X1300480Y647700D01*
D10*
X977900Y336804D02*
X977900Y323596D01*
X1003300Y323596D02*
X1003300Y336804D01*
X1003300Y399796D02*
X1003300Y413004D01*
X977900Y413004D02*
X977900Y399796D01*
X1028700Y336804D02*
X1028700Y323596D01*
X1054100Y323596D02*
X1054100Y336804D01*
X1028700Y399796D02*
X1028700Y413004D01*
X1054100Y413004D02*
X1054100Y399796D01*
D12*
X876300Y520700D03*
X901700Y520700D03*
X673100Y660400D03*
X774700Y660400D03*
D14*
X1211580Y355600D02*
X1226820Y355600D01*
X1226820Y381000D02*
X1211580Y381000D01*
X1211580Y406400D02*
X1226820Y406400D01*
X1226820Y431800D02*
X1211580Y431800D01*
X1211580Y457200D02*
X1226820Y457200D01*
X1226820Y482600D02*
X1211580Y482600D01*
D17*
X165100Y228600D03*
X215900Y228600D03*
X190500Y254000D03*
X406400Y228600D03*
X457200Y228600D03*
X431800Y254000D03*
X647700Y228600D03*
X698500Y228600D03*
X673100Y254000D03*
X901700Y228600D03*
X952500Y228600D03*
X927100Y254000D03*
X1117600Y228600D03*
X1168400Y228600D03*
X1143000Y254000D03*
D18*
X1193800Y774700D03*
X1143000Y774700D03*
X1168400Y749300D03*
X901700Y774700D03*
X850900Y774700D03*
X876300Y749300D03*
X749300Y774700D03*
X698500Y774700D03*
X723900Y749300D03*
X368300Y774700D03*
X317500Y774700D03*
X342900Y749300D03*
X215900Y774700D03*
X165100Y774700D03*
X190500Y749300D03*
D14*
X1135380Y355600D02*
X1150620Y355600D01*
X1150620Y381000D02*
X1135380Y381000D01*
X1135380Y406400D02*
X1150620Y406400D01*
X1150620Y431800D02*
X1135380Y431800D01*
X1135380Y457200D02*
X1150620Y457200D01*
X1150620Y482600D02*
X1135380Y482600D01*
X1135380Y508000D02*
X1150620Y508000D01*
D19*
X1283208Y152400D02*
X1283208Y140208D01*
X1283208Y152400D02*
X1307592Y176784D01*
X1283208Y140208D02*
X1282700Y139700D01*
X1307592Y176784D02*
X1308100Y177800D01*
X1016508Y152400D02*
X1016508Y140208D01*
X1016508Y152400D02*
X1040892Y176784D01*
X1016508Y140208D02*
X1016000Y139700D01*
X1040892Y176784D02*
X1041400Y177800D01*
X1104900Y190500D02*
X1104900Y216408D01*
X1117092Y228600D01*
X1117600Y228600D01*
X1092708Y178308D02*
X1042416Y178308D01*
X1092708Y178308D02*
X1104900Y190500D01*
X1042416Y178308D02*
X1041400Y177800D01*
X1219200Y377952D02*
X1219200Y381000D01*
X1219200Y377952D02*
X1118616Y277368D01*
X1118616Y228600D01*
X1117600Y228600D01*
X1080516Y813816D02*
X1042416Y813816D01*
X1080516Y813816D02*
X1092200Y825500D01*
X1042416Y813816D02*
X1041400Y812800D01*
X1117092Y850392D02*
X1117092Y862584D01*
X1117092Y850392D02*
X1092200Y825500D01*
X1117092Y862584D02*
X1117600Y863600D01*
X1231392Y812292D02*
X1281684Y812292D01*
X1231392Y812292D02*
X1193800Y774700D01*
X1281684Y812292D02*
X1282700Y812800D01*
X1193292Y774192D02*
X1117092Y850392D01*
X1193292Y774192D02*
X1193800Y774700D01*
X826008Y826008D02*
X826008Y838200D01*
X850392Y862584D01*
X826008Y826008D02*
X825500Y825500D01*
X850392Y862584D02*
X850900Y863600D01*
X774192Y749808D02*
X774192Y661416D01*
X774192Y749808D02*
X749300Y774700D01*
X774192Y661416D02*
X774700Y660400D01*
X786384Y824484D02*
X824484Y824484D01*
X786384Y824484D02*
X774700Y812800D01*
X824484Y824484D02*
X825500Y825500D01*
X673608Y405384D02*
X673608Y330708D01*
X673100Y330200D01*
X673608Y405384D02*
X673100Y406400D01*
X672084Y406908D02*
X647700Y406908D01*
X647700Y406400D01*
X672084Y406908D02*
X673100Y406400D01*
X501396Y405384D02*
X495300Y405384D01*
X501396Y405384D02*
X516636Y390144D01*
X632460Y390144D01*
X647700Y405384D01*
X495300Y405384D02*
X495300Y406400D01*
X647700Y406400D02*
X647700Y405384D01*
X813816Y406908D02*
X838200Y406908D01*
X813816Y406908D02*
X812800Y406400D01*
X838200Y406400D02*
X838200Y406908D01*
X1002792Y381000D02*
X1002792Y330708D01*
X1002792Y381000D02*
X978408Y405384D01*
X1002792Y330708D02*
X1003300Y330200D01*
X978408Y405384D02*
X977900Y406400D01*
X914400Y622300D02*
X914400Y647700D01*
X902208Y659892D01*
X902208Y774192D01*
X901700Y774700D01*
X838200Y824484D02*
X826008Y824484D01*
X838200Y824484D02*
X886968Y775716D01*
X900684Y775716D01*
X826008Y824484D02*
X825500Y825500D01*
X900684Y775716D02*
X901700Y774700D01*
X1040892Y813816D02*
X1040892Y845820D01*
X1004316Y882396D01*
X870204Y882396D01*
X851916Y864108D01*
X1040892Y813816D02*
X1041400Y812800D01*
X851916Y864108D02*
X850900Y863600D01*
X25908Y838200D02*
X25908Y826008D01*
X25908Y838200D02*
X50292Y862584D01*
X25908Y826008D02*
X25400Y825500D01*
X50292Y862584D02*
X50800Y863600D01*
X25908Y824484D02*
X25908Y647700D01*
X25400Y647700D01*
X25908Y824484D02*
X25400Y825500D01*
X583692Y850392D02*
X583692Y862584D01*
X583692Y850392D02*
X558800Y825500D01*
X583692Y862584D02*
X584200Y863600D01*
X240792Y812292D02*
X240792Y800100D01*
X216408Y775716D01*
X240792Y812292D02*
X241300Y812800D01*
X216408Y775716D02*
X215900Y774700D01*
X292608Y826008D02*
X292608Y838200D01*
X316992Y862584D01*
X292608Y826008D02*
X292100Y825500D01*
X316992Y862584D02*
X317500Y863600D01*
X280416Y813816D02*
X242316Y813816D01*
X280416Y813816D02*
X292100Y825500D01*
X242316Y813816D02*
X241300Y812800D01*
X419100Y812292D02*
X507492Y812292D01*
X419100Y812292D02*
X382524Y775716D01*
X368808Y775716D01*
X507492Y812292D02*
X508000Y812800D01*
X368808Y775716D02*
X368300Y774700D01*
X216408Y152400D02*
X216408Y140208D01*
X216408Y152400D02*
X240792Y176784D01*
X216408Y140208D02*
X215900Y139700D01*
X240792Y176784D02*
X241300Y177800D01*
X254508Y190500D02*
X279400Y190500D01*
X254508Y190500D02*
X242316Y178308D01*
X241300Y177800D01*
X166116Y330708D02*
X166116Y405384D01*
X166116Y330708D02*
X165100Y330200D01*
X166116Y405384D02*
X165100Y406400D01*
X164592Y406908D02*
X140208Y406908D01*
X139700Y406400D01*
X164592Y406908D02*
X165100Y406400D01*
X114300Y178308D02*
X64008Y178308D01*
X114300Y178308D02*
X164592Y228600D01*
X64008Y178308D02*
X63500Y177800D01*
X164592Y228600D02*
X165100Y228600D01*
X166116Y228600D02*
X166116Y329184D01*
X165100Y330200D01*
X165100Y228600D02*
X166116Y228600D01*
X749808Y152400D02*
X749808Y140208D01*
X749808Y152400D02*
X774192Y176784D01*
X749808Y140208D02*
X749300Y139700D01*
X774192Y176784D02*
X774700Y177800D01*
X787908Y190500D02*
X838200Y190500D01*
X787908Y190500D02*
X775716Y178308D01*
X774700Y177800D01*
X876300Y228600D02*
X901700Y228600D01*
X876300Y228600D02*
X838200Y190500D01*
X330708Y330708D02*
X330708Y405384D01*
X330708Y330708D02*
X330200Y330200D01*
X330708Y405384D02*
X330200Y406400D01*
X329184Y406908D02*
X304800Y406908D01*
X304800Y406400D01*
X329184Y406908D02*
X330200Y406400D01*
X483108Y152400D02*
X483108Y140208D01*
X483108Y152400D02*
X507492Y176784D01*
X483108Y140208D02*
X482600Y139700D01*
X507492Y176784D02*
X508000Y177800D01*
X521208Y190500D02*
X571500Y190500D01*
X521208Y190500D02*
X509016Y178308D01*
X508000Y177800D01*
X330708Y303276D02*
X330708Y329184D01*
X330708Y303276D02*
X405384Y228600D01*
X330708Y329184D02*
X330200Y330200D01*
X405384Y228600D02*
X406400Y228600D01*
X24384Y509016D02*
X24384Y647700D01*
X24384Y509016D02*
X15240Y499872D01*
X15240Y490728D01*
X99060Y406908D01*
X138684Y406908D01*
X25400Y647700D02*
X24384Y647700D01*
X138684Y406908D02*
X139700Y406400D01*
X1008888Y138684D02*
X1014984Y138684D01*
X1008888Y138684D02*
X993648Y123444D01*
X961644Y123444D01*
X902208Y182880D01*
X902208Y228600D01*
X1014984Y138684D02*
X1016000Y139700D01*
X902208Y228600D02*
X901700Y228600D01*
X851916Y826008D02*
X851916Y838200D01*
X876300Y862584D01*
X851916Y826008D02*
X850900Y825500D01*
X876300Y862584D02*
X876300Y863600D01*
X1263396Y864108D02*
X1269492Y864108D01*
X1263396Y864108D02*
X1248156Y879348D01*
X1158240Y879348D01*
X1143000Y864108D01*
X1269492Y864108D02*
X1270000Y863600D01*
X1143000Y863600D02*
X1143000Y864108D01*
X882396Y864108D02*
X876300Y864108D01*
X882396Y864108D02*
X897636Y879348D01*
X987552Y879348D01*
X1003300Y863600D01*
X876300Y863600D02*
X876300Y864108D01*
X914400Y669036D02*
X914400Y660400D01*
X914400Y669036D02*
X905256Y678180D01*
X905256Y762000D01*
X912876Y769620D01*
X912876Y780288D01*
X868680Y824484D01*
X851916Y824484D01*
X850900Y825500D01*
X1232916Y621792D02*
X1307592Y621792D01*
X1232916Y621792D02*
X1231900Y622300D01*
X1307592Y621792D02*
X1308100Y622300D01*
X1309116Y621792D02*
X1309116Y478536D01*
X1325880Y461772D01*
X1325880Y423672D01*
X1309116Y406908D01*
X1309116Y621792D02*
X1308100Y622300D01*
X1309116Y406908D02*
X1308100Y406400D01*
X766572Y329184D02*
X723900Y329184D01*
X766572Y329184D02*
X781812Y313944D01*
X873252Y313944D01*
X879348Y320040D02*
X888492Y329184D01*
X879348Y320040D02*
X873252Y313944D01*
X723900Y329184D02*
X723900Y330200D01*
X888492Y329184D02*
X889000Y330200D01*
X1257300Y152400D02*
X1257300Y139700D01*
X1257300Y152400D02*
X1282700Y177800D01*
X990600Y152400D02*
X990600Y139700D01*
X990600Y152400D02*
X1016000Y177800D01*
X1014984Y184404D02*
X879348Y320040D01*
X1014984Y184404D02*
X1014984Y178308D01*
X1016000Y177800D01*
X1016508Y547116D02*
X1019556Y547116D01*
X1094232Y621792D01*
X1231392Y621792D01*
X1016508Y547116D02*
X1016000Y546100D01*
X1231392Y621792D02*
X1231900Y622300D01*
X585216Y826008D02*
X585216Y838200D01*
X609600Y862584D01*
X585216Y826008D02*
X584200Y825500D01*
X609600Y862584D02*
X609600Y863600D01*
X51816Y838200D02*
X51816Y826008D01*
X51816Y838200D02*
X76200Y862584D01*
X51816Y826008D02*
X50800Y825500D01*
X76200Y862584D02*
X76200Y863600D01*
X318516Y838200D02*
X318516Y826008D01*
X318516Y838200D02*
X342900Y862584D01*
X318516Y826008D02*
X317500Y825500D01*
X342900Y862584D02*
X342900Y863600D01*
X723900Y152400D02*
X723900Y139700D01*
X723900Y152400D02*
X749300Y177800D01*
X768096Y138684D02*
X862584Y138684D01*
X768096Y138684D02*
X752856Y123444D01*
X739140Y123444D01*
X723900Y138684D01*
X862584Y138684D02*
X863600Y139700D01*
X723900Y139700D02*
X723900Y138684D01*
X457200Y139700D02*
X457200Y152400D01*
X482600Y177800D01*
X539496Y330708D02*
X545592Y330708D01*
X539496Y330708D02*
X524256Y345948D01*
X516636Y345948D01*
X504444Y333756D01*
X504444Y199644D01*
X482600Y177800D01*
X546100Y330200D02*
X545592Y330708D01*
X214884Y329184D02*
X214884Y243840D01*
X204216Y233172D01*
X204216Y188976D01*
X214884Y178308D01*
X214884Y329184D02*
X215900Y330200D01*
X214884Y178308D02*
X215900Y177800D01*
X36576Y495300D02*
X35052Y495300D01*
X25400Y495300D01*
X36576Y495300D02*
X109728Y422148D01*
X169164Y422148D01*
X181356Y409956D01*
X181356Y364236D01*
X214884Y330708D01*
X215900Y330200D01*
X190500Y152400D02*
X190500Y139700D01*
X190500Y152400D02*
X215900Y177800D01*
X50292Y784860D02*
X50292Y824484D01*
X50292Y784860D02*
X33528Y768096D01*
X33528Y653796D01*
X35052Y652272D01*
X35052Y495300D01*
X50292Y824484D02*
X50800Y825500D01*
X1034796Y138684D02*
X1129284Y138684D01*
X1034796Y138684D02*
X1016508Y120396D01*
X882396Y120396D01*
X864108Y138684D01*
X1129284Y138684D02*
X1130300Y139700D01*
X864108Y138684D02*
X863600Y139700D01*
X128016Y140208D02*
X89916Y140208D01*
X128016Y140208D02*
X164592Y176784D01*
X89916Y140208D02*
X88900Y139700D01*
X164592Y176784D02*
X165100Y177800D01*
X190500Y271272D02*
X190500Y330200D01*
X190500Y271272D02*
X176784Y257556D01*
X176784Y188976D01*
X166116Y178308D01*
X165100Y177800D01*
X356616Y166116D02*
X356616Y140208D01*
X356616Y166116D02*
X381000Y190500D01*
X356616Y140208D02*
X355600Y139700D01*
X216408Y355092D02*
X216408Y405384D01*
X216408Y355092D02*
X381000Y190500D01*
X216408Y405384D02*
X215900Y406400D01*
X190500Y406400D02*
X190500Y512064D01*
X304800Y626364D01*
X304800Y647700D01*
X673608Y190500D02*
X623316Y140208D01*
X622300Y139700D01*
X673100Y190500D02*
X673608Y190500D01*
X304800Y330200D02*
X304800Y387096D01*
X295656Y396240D01*
X295656Y472440D01*
X315468Y492252D01*
X315468Y650748D01*
X307848Y658368D01*
X291084Y658368D01*
X280416Y647700D01*
X279400Y647700D01*
X1156716Y140208D02*
X1207008Y190500D01*
X1156716Y140208D02*
X1155700Y139700D01*
X1206500Y190500D02*
X1207008Y190500D01*
X527304Y329184D02*
X521208Y329184D01*
X527304Y329184D02*
X656844Y199644D01*
X676656Y199644D01*
X688848Y187452D01*
X688848Y129540D01*
X701040Y117348D01*
X1133856Y117348D01*
X1155192Y138684D01*
X521208Y329184D02*
X520700Y330200D01*
X1155192Y138684D02*
X1155700Y139700D01*
X1229868Y862584D02*
X1243584Y862584D01*
X1229868Y862584D02*
X1181100Y813816D01*
X1243584Y862584D02*
X1244600Y863600D01*
X1181100Y813816D02*
X1181100Y812800D01*
X519684Y464820D02*
X519684Y406908D01*
X519684Y464820D02*
X492252Y492252D01*
X492252Y499872D01*
X481584Y510540D01*
X478536Y510540D01*
X339852Y649224D01*
X339852Y652272D01*
X330708Y661416D01*
X217932Y661416D01*
X204216Y647700D01*
X519684Y406908D02*
X520700Y406400D01*
X204216Y647700D02*
X203200Y647700D01*
X976884Y850392D02*
X976884Y862584D01*
X976884Y850392D02*
X940308Y813816D01*
X976884Y862584D02*
X977900Y863600D01*
X940308Y813816D02*
X939800Y812800D01*
X673608Y813816D02*
X673608Y826008D01*
X711200Y863600D01*
X673608Y813816D02*
X673100Y812800D01*
X723900Y595884D02*
X723900Y406400D01*
X723900Y595884D02*
X662940Y656844D01*
X662940Y803148D01*
X672084Y812292D01*
X673100Y812800D01*
X623316Y481584D02*
X698500Y406400D01*
X623316Y481584D02*
X507492Y481584D01*
X495300Y493776D01*
X495300Y522732D01*
X481584Y536448D01*
X478536Y536448D01*
X365760Y649224D01*
X365760Y652272D01*
X350520Y667512D01*
X172212Y667512D01*
X152400Y647700D01*
X769620Y330708D02*
X812292Y330708D01*
X769620Y330708D02*
X710184Y390144D01*
X694944Y390144D01*
X682752Y402336D01*
X682752Y416052D01*
X676656Y422148D01*
X539496Y422148D01*
X533400Y416052D01*
X812292Y330708D02*
X812800Y330200D01*
D20*
X533400Y416052D03*
D19*
X140208Y813816D02*
X140208Y826008D01*
X177800Y863600D01*
X140208Y813816D02*
X139700Y812800D01*
X888492Y685800D02*
X888492Y624840D01*
X888492Y685800D02*
X723900Y850392D01*
X723900Y874776D01*
X716280Y882396D01*
X196596Y882396D01*
X177800Y863600D01*
D20*
X888492Y624840D03*
D19*
X862584Y406908D02*
X858012Y406908D01*
X771144Y493776D01*
X729996Y493776D01*
X623316Y493776D02*
X614172Y484632D01*
X530352Y484632D01*
X518160Y496824D01*
X518160Y524256D01*
X481584Y560832D01*
X478536Y560832D01*
X391668Y647700D01*
X391668Y650748D01*
X371856Y670560D01*
X124968Y670560D01*
X102108Y647700D01*
X862584Y406908D02*
X863600Y406400D01*
X102108Y647700D02*
X101600Y647700D01*
D20*
X729996Y493776D03*
X623316Y493776D03*
D19*
X166116Y166116D02*
X166116Y140208D01*
X166116Y166116D02*
X190500Y190500D01*
X190500Y254000D01*
X166116Y140208D02*
X165100Y139700D01*
X432816Y140208D02*
X432816Y252984D01*
X432816Y140208D02*
X431800Y139700D01*
X432816Y252984D02*
X431800Y254000D01*
X432816Y254508D02*
X432816Y495300D01*
X431800Y495300D01*
X432816Y254508D02*
X431800Y254000D01*
X697992Y211836D02*
X697992Y140208D01*
X697992Y211836D02*
X673608Y236220D01*
X673608Y252984D01*
X697992Y140208D02*
X698500Y139700D01*
X673608Y252984D02*
X673100Y254000D01*
X964692Y199644D02*
X964692Y140208D01*
X964692Y199644D02*
X928116Y236220D01*
X928116Y252984D01*
X964692Y140208D02*
X965200Y139700D01*
X928116Y252984D02*
X927100Y254000D01*
X483108Y399288D02*
X483108Y495300D01*
X483108Y399288D02*
X530352Y352044D01*
X606552Y352044D01*
X661416Y297180D01*
X883920Y297180D01*
X927100Y254000D01*
X483108Y495300D02*
X482600Y495300D01*
X583692Y586740D02*
X583692Y591312D01*
X583692Y586740D02*
X714756Y455676D01*
X714756Y396240D01*
X762000Y348996D01*
X938784Y348996D01*
X1030224Y257556D01*
D20*
X583692Y591312D03*
X1030224Y257556D03*
D19*
X592836Y554736D02*
X533400Y495300D01*
X917448Y737616D02*
X1156716Y737616D01*
X1168400Y749300D01*
D20*
X592836Y554736D03*
X917448Y737616D03*
D19*
X589788Y525780D02*
X559308Y495300D01*
X558800Y495300D01*
D20*
X589788Y525780D03*
D19*
X367284Y790956D02*
X367284Y862584D01*
X367284Y790956D02*
X342900Y766572D01*
X342900Y749300D01*
X367284Y862584D02*
X368300Y863600D01*
X609600Y551688D02*
X609600Y495300D01*
X609600Y551688D02*
X524256Y637032D01*
X504444Y637032D01*
X492252Y649224D01*
X492252Y652272D01*
X396240Y748284D01*
X342900Y748284D01*
X342900Y749300D01*
X102108Y821436D02*
X102108Y862584D01*
X102108Y821436D02*
X173736Y749808D01*
X190500Y749808D01*
X102108Y862584D02*
X101600Y863600D01*
X609600Y723900D02*
X609600Y647700D01*
X609600Y723900D02*
X486156Y847344D01*
X403860Y847344D01*
X371856Y879348D01*
X294132Y879348D01*
X190500Y775716D01*
X190500Y749808D01*
X190500Y749300D01*
X914400Y685800D02*
X914400Y673608D01*
X990600Y597408D01*
X990600Y546100D01*
X1254252Y647700D02*
X1308100Y647700D01*
X1254252Y647700D02*
X1239012Y632460D01*
X1025652Y632460D01*
X990600Y597408D01*
X1143000Y685800D02*
X1193292Y685800D01*
X1231392Y647700D01*
X1231900Y647700D01*
X1156716Y583692D02*
X1143000Y583692D01*
X1156716Y583692D02*
X1307592Y432816D01*
X1143000Y583692D02*
X1143000Y584200D01*
X1307592Y432816D02*
X1308100Y431800D01*
X304800Y486156D02*
X304800Y495300D01*
X304800Y486156D02*
X292608Y473964D01*
X292608Y323088D01*
X399288Y216408D01*
X426720Y216408D01*
D20*
X426720Y216408D03*
D19*
X280416Y304800D02*
X280416Y495300D01*
X280416Y304800D02*
X422148Y163068D01*
X422148Y129540D01*
X448056Y103632D01*
X1139952Y103632D01*
X1232916Y196596D01*
X1232916Y347472D01*
X1237488Y352044D01*
X1237488Y413004D01*
X1219200Y431292D01*
X280416Y495300D02*
X279400Y495300D01*
X1219200Y431800D02*
X1219200Y431292D01*
X1028700Y361188D02*
X1028700Y330200D01*
X1028700Y361188D02*
X987552Y402336D01*
X987552Y416052D01*
X883920Y519684D01*
X876300Y519684D01*
X876300Y520700D01*
X673608Y653796D02*
X673608Y659892D01*
X673608Y653796D02*
X806196Y521208D01*
X876300Y521208D01*
X673608Y659892D02*
X673100Y660400D01*
X876300Y521208D02*
X876300Y520700D01*
X472440Y493776D02*
X457200Y509016D01*
X472440Y493776D02*
X472440Y423672D01*
X480060Y416052D01*
X480060Y393192D01*
X524256Y348996D01*
X605028Y348996D01*
X662940Y291084D01*
X880872Y291084D01*
D20*
X457200Y509016D03*
X880872Y291084D03*
D19*
X489204Y647700D02*
X482600Y647700D01*
X489204Y647700D02*
X576072Y560832D01*
X595884Y560832D01*
X601980Y554736D01*
X601980Y550164D01*
X786384Y550164D02*
X925068Y550164D01*
X1033272Y441960D01*
X1155192Y441960D01*
X1161288Y435864D01*
X1161288Y425196D01*
X1143000Y406908D01*
X1143000Y406400D01*
D20*
X601980Y550164D03*
X786384Y550164D03*
D19*
X518160Y647700D02*
X508000Y647700D01*
X518160Y647700D02*
X711708Y454152D01*
X711708Y394716D01*
X760476Y345948D01*
X932688Y345948D01*
X1027176Y251460D01*
X1033272Y251460D01*
X1124712Y342900D01*
X1124712Y413004D01*
X1143000Y431292D01*
X1143000Y431800D01*
X544068Y647700D02*
X533400Y647700D01*
X544068Y647700D02*
X554736Y637032D01*
X612648Y637032D01*
X659892Y684276D01*
X659892Y832104D01*
X707136Y879348D01*
X714756Y879348D01*
X720852Y873252D01*
X720852Y819912D01*
X797052Y743712D01*
X797052Y682752D01*
X932688Y547116D01*
X963168Y547116D01*
X1053084Y457200D01*
X1143000Y457200D01*
X947928Y550164D02*
X871728Y626364D01*
X947928Y550164D02*
X964692Y550164D01*
X1031748Y483108D01*
X1143000Y483108D01*
X1143000Y482600D01*
D20*
X871728Y626364D03*
M02*
