G04 EAGLE Gerber RS-274X export*
G75*
%MOMM*%
%FSLAX34Y34*%
%LPD*%
%INBottom Copper*%
%IPPOS*%
%AMOC8*
5,1,8,0,0,1.08239X$1,22.5*%
G01*
%ADD10C,1.320800*%
%ADD11P,1.429621X8X202.500000*%
%ADD12P,1.429621X8X22.500000*%
%ADD13C,1.473200*%
%ADD14C,1.524000*%
%ADD15P,1.429621X8X292.500000*%
%ADD16P,1.429621X8X112.500000*%
%ADD17P,1.924489X8X22.500000*%
%ADD18P,1.924489X8X202.500000*%
%ADD19C,0.152400*%
%ADD20C,0.756400*%


D10*
X50800Y56896D02*
X50800Y70104D01*
X101600Y70104D02*
X101600Y56896D01*
X63500Y133096D02*
X63500Y146304D01*
X88900Y146304D02*
X88900Y133096D01*
X215900Y933196D02*
X215900Y946404D01*
X165100Y946404D02*
X165100Y933196D01*
X203200Y870204D02*
X203200Y856996D01*
X177800Y856996D02*
X177800Y870204D01*
X317500Y70104D02*
X317500Y56896D01*
X368300Y56896D02*
X368300Y70104D01*
X330200Y133096D02*
X330200Y146304D01*
X355600Y146304D02*
X355600Y133096D01*
X584200Y70104D02*
X584200Y56896D01*
X635000Y56896D02*
X635000Y70104D01*
X596900Y133096D02*
X596900Y146304D01*
X622300Y146304D02*
X622300Y133096D01*
X850900Y70104D02*
X850900Y56896D01*
X901700Y56896D02*
X901700Y70104D01*
X863600Y133096D02*
X863600Y146304D01*
X889000Y146304D02*
X889000Y133096D01*
X1117600Y70104D02*
X1117600Y56896D01*
X1168400Y56896D02*
X1168400Y70104D01*
X1130300Y133096D02*
X1130300Y146304D01*
X1155700Y146304D02*
X1155700Y133096D01*
X1282700Y933196D02*
X1282700Y946404D01*
X1231900Y946404D02*
X1231900Y933196D01*
X1270000Y870204D02*
X1270000Y856996D01*
X1244600Y856996D02*
X1244600Y870204D01*
X1016000Y933196D02*
X1016000Y946404D01*
X965200Y946404D02*
X965200Y933196D01*
X1003300Y870204D02*
X1003300Y856996D01*
X977900Y856996D02*
X977900Y870204D01*
X749300Y933196D02*
X749300Y946404D01*
X698500Y946404D02*
X698500Y933196D01*
X736600Y870204D02*
X736600Y856996D01*
X711200Y856996D02*
X711200Y870204D01*
X482600Y933196D02*
X482600Y946404D01*
X431800Y946404D02*
X431800Y933196D01*
X469900Y870204D02*
X469900Y856996D01*
X444500Y856996D02*
X444500Y870204D01*
X165100Y70104D02*
X165100Y56896D01*
X215900Y56896D02*
X215900Y70104D01*
X165100Y133096D02*
X165100Y146304D01*
X215900Y146304D02*
X215900Y133096D01*
X190500Y133096D02*
X190500Y146304D01*
X431800Y70104D02*
X431800Y56896D01*
X482600Y56896D02*
X482600Y70104D01*
X431800Y133096D02*
X431800Y146304D01*
X482600Y146304D02*
X482600Y133096D01*
X457200Y133096D02*
X457200Y146304D01*
X698500Y70104D02*
X698500Y56896D01*
X749300Y56896D02*
X749300Y70104D01*
X698500Y133096D02*
X698500Y146304D01*
X749300Y146304D02*
X749300Y133096D01*
X723900Y133096D02*
X723900Y146304D01*
X965200Y70104D02*
X965200Y56896D01*
X1016000Y56896D02*
X1016000Y70104D01*
X965200Y133096D02*
X965200Y146304D01*
X1016000Y146304D02*
X1016000Y133096D01*
X990600Y133096D02*
X990600Y146304D01*
X1231900Y70104D02*
X1231900Y56896D01*
X1282700Y56896D02*
X1282700Y70104D01*
X1231900Y133096D02*
X1231900Y146304D01*
X1282700Y146304D02*
X1282700Y133096D01*
X1257300Y133096D02*
X1257300Y146304D01*
X1168400Y933196D02*
X1168400Y946404D01*
X1117600Y946404D02*
X1117600Y933196D01*
X1168400Y870204D02*
X1168400Y856996D01*
X1117600Y856996D02*
X1117600Y870204D01*
X1143000Y870204D02*
X1143000Y856996D01*
X901700Y933196D02*
X901700Y946404D01*
X850900Y946404D02*
X850900Y933196D01*
X901700Y870204D02*
X901700Y856996D01*
X850900Y856996D02*
X850900Y870204D01*
X876300Y870204D02*
X876300Y856996D01*
X635000Y933196D02*
X635000Y946404D01*
X584200Y946404D02*
X584200Y933196D01*
X635000Y870204D02*
X635000Y856996D01*
X584200Y856996D02*
X584200Y870204D01*
X609600Y870204D02*
X609600Y856996D01*
X368300Y933196D02*
X368300Y946404D01*
X317500Y946404D02*
X317500Y933196D01*
X368300Y870204D02*
X368300Y856996D01*
X317500Y856996D02*
X317500Y870204D01*
X342900Y870204D02*
X342900Y856996D01*
X101600Y933196D02*
X101600Y946404D01*
X50800Y946404D02*
X50800Y933196D01*
X101600Y870204D02*
X101600Y856996D01*
X50800Y856996D02*
X50800Y870204D01*
X76200Y870204D02*
X76200Y856996D01*
D11*
X241300Y177800D03*
X215900Y177800D03*
X508000Y177800D03*
X482600Y177800D03*
X774700Y177800D03*
X749300Y177800D03*
X1041400Y177800D03*
X1016000Y177800D03*
X1308100Y177800D03*
X1282700Y177800D03*
D12*
X1092200Y825500D03*
X1117600Y825500D03*
X825500Y825500D03*
X850900Y825500D03*
X558800Y825500D03*
X584200Y825500D03*
X292100Y825500D03*
X317500Y825500D03*
X25400Y825500D03*
X50800Y825500D03*
D13*
X76200Y495300D03*
X101600Y495300D03*
X127000Y495300D03*
X152400Y495300D03*
X177800Y495300D03*
X203200Y495300D03*
X228600Y495300D03*
X254000Y495300D03*
X279400Y495300D03*
X304800Y495300D03*
X330200Y495300D03*
X355600Y495300D03*
X355600Y647700D03*
X330200Y647700D03*
X304800Y647700D03*
X279400Y647700D03*
X254000Y647700D03*
X228600Y647700D03*
X203200Y647700D03*
X177800Y647700D03*
X152400Y647700D03*
X127000Y647700D03*
X101600Y647700D03*
X50800Y495300D03*
X76200Y647700D03*
X50800Y647700D03*
X25400Y495300D03*
X25400Y647700D03*
X381000Y495300D03*
X381000Y647700D03*
X406400Y495300D03*
X431800Y495300D03*
X457200Y495300D03*
X482600Y495300D03*
X508000Y495300D03*
X533400Y495300D03*
X558800Y495300D03*
X584200Y495300D03*
X609600Y495300D03*
X609600Y647700D03*
X584200Y647700D03*
X558800Y647700D03*
X533400Y647700D03*
X508000Y647700D03*
X482600Y647700D03*
X457200Y647700D03*
X431800Y647700D03*
X406400Y647700D03*
X482600Y520700D03*
X482600Y571500D03*
X482600Y596900D03*
X482600Y546100D03*
X482600Y622300D03*
X50800Y622300D03*
X101600Y622300D03*
X127000Y622300D03*
X152400Y622300D03*
X88900Y527050D03*
X114300Y527050D03*
X139700Y527050D03*
X165100Y527050D03*
X190500Y527050D03*
D12*
X63500Y177800D03*
X165100Y177800D03*
D10*
X139700Y323596D02*
X139700Y336804D01*
X165100Y336804D02*
X165100Y323596D01*
X165100Y399796D02*
X165100Y413004D01*
X139700Y413004D02*
X139700Y399796D01*
X190500Y336804D02*
X190500Y323596D01*
X215900Y323596D02*
X215900Y336804D01*
X190500Y399796D02*
X190500Y413004D01*
X215900Y413004D02*
X215900Y399796D01*
X304800Y336804D02*
X304800Y323596D01*
X330200Y323596D02*
X330200Y336804D01*
X330200Y399796D02*
X330200Y413004D01*
X304800Y413004D02*
X304800Y399796D01*
X355600Y336804D02*
X355600Y323596D01*
X381000Y323596D02*
X381000Y336804D01*
X355600Y399796D02*
X355600Y413004D01*
X381000Y413004D02*
X381000Y399796D01*
X469900Y336804D02*
X469900Y323596D01*
X495300Y323596D02*
X495300Y336804D01*
X495300Y399796D02*
X495300Y413004D01*
X469900Y413004D02*
X469900Y399796D01*
X520700Y336804D02*
X520700Y323596D01*
X546100Y323596D02*
X546100Y336804D01*
X520700Y399796D02*
X520700Y413004D01*
X546100Y413004D02*
X546100Y399796D01*
X647700Y336804D02*
X647700Y323596D01*
X673100Y323596D02*
X673100Y336804D01*
X673100Y399796D02*
X673100Y413004D01*
X647700Y413004D02*
X647700Y399796D01*
X698500Y336804D02*
X698500Y323596D01*
X723900Y323596D02*
X723900Y336804D01*
X698500Y399796D02*
X698500Y413004D01*
X723900Y413004D02*
X723900Y399796D01*
X812800Y336804D02*
X812800Y323596D01*
X838200Y323596D02*
X838200Y336804D01*
X838200Y399796D02*
X838200Y413004D01*
X812800Y413004D02*
X812800Y399796D01*
X863600Y336804D02*
X863600Y323596D01*
X889000Y323596D02*
X889000Y336804D01*
X863600Y399796D02*
X863600Y413004D01*
X889000Y413004D02*
X889000Y399796D01*
D12*
X279400Y190500D03*
X381000Y190500D03*
X571500Y190500D03*
X673100Y190500D03*
X838200Y190500D03*
X939800Y190500D03*
X1104900Y190500D03*
X1206500Y190500D03*
D11*
X1282700Y812800D03*
X1181100Y812800D03*
X1041400Y812800D03*
X939800Y812800D03*
X774700Y812800D03*
X673100Y812800D03*
X508000Y812800D03*
X406400Y812800D03*
X241300Y812800D03*
X139700Y812800D03*
D14*
X990600Y553720D02*
X990600Y538480D01*
X1016000Y538480D02*
X1016000Y553720D01*
X1041400Y553720D02*
X1041400Y538480D01*
D15*
X914400Y685800D03*
X914400Y660400D03*
X914400Y622300D03*
X914400Y596900D03*
D14*
X1224280Y622300D02*
X1239520Y622300D01*
X1239520Y647700D02*
X1224280Y647700D01*
X1300480Y406400D02*
X1315720Y406400D01*
X1315720Y431800D02*
X1300480Y431800D01*
X1300480Y457200D02*
X1315720Y457200D01*
D16*
X1143000Y584200D03*
X1143000Y685800D03*
D14*
X1300480Y622300D02*
X1315720Y622300D01*
X1315720Y647700D02*
X1300480Y647700D01*
D10*
X977900Y336804D02*
X977900Y323596D01*
X1003300Y323596D02*
X1003300Y336804D01*
X1003300Y399796D02*
X1003300Y413004D01*
X977900Y413004D02*
X977900Y399796D01*
X1028700Y336804D02*
X1028700Y323596D01*
X1054100Y323596D02*
X1054100Y336804D01*
X1028700Y399796D02*
X1028700Y413004D01*
X1054100Y413004D02*
X1054100Y399796D01*
D12*
X876300Y520700D03*
X901700Y520700D03*
X673100Y660400D03*
X774700Y660400D03*
D14*
X1211580Y355600D02*
X1226820Y355600D01*
X1226820Y381000D02*
X1211580Y381000D01*
X1211580Y406400D02*
X1226820Y406400D01*
X1226820Y431800D02*
X1211580Y431800D01*
X1211580Y457200D02*
X1226820Y457200D01*
X1226820Y482600D02*
X1211580Y482600D01*
D17*
X165100Y228600D03*
X215900Y228600D03*
X190500Y254000D03*
X406400Y228600D03*
X457200Y228600D03*
X431800Y254000D03*
X647700Y228600D03*
X698500Y228600D03*
X673100Y254000D03*
X901700Y228600D03*
X952500Y228600D03*
X927100Y254000D03*
X1117600Y228600D03*
X1168400Y228600D03*
X1143000Y254000D03*
D18*
X1193800Y774700D03*
X1143000Y774700D03*
X1168400Y749300D03*
X901700Y774700D03*
X850900Y774700D03*
X876300Y749300D03*
X749300Y774700D03*
X698500Y774700D03*
X723900Y749300D03*
X368300Y774700D03*
X317500Y774700D03*
X342900Y749300D03*
X215900Y774700D03*
X165100Y774700D03*
X190500Y749300D03*
D14*
X1135380Y355600D02*
X1150620Y355600D01*
X1150620Y381000D02*
X1135380Y381000D01*
X1135380Y406400D02*
X1150620Y406400D01*
X1150620Y431800D02*
X1135380Y431800D01*
X1135380Y457200D02*
X1150620Y457200D01*
X1150620Y482600D02*
X1135380Y482600D01*
X1135380Y508000D02*
X1150620Y508000D01*
D19*
X1219200Y381000D02*
X1231392Y381000D01*
X1307592Y457200D01*
X1308100Y457200D01*
X1281684Y138684D02*
X1275588Y138684D01*
X1257300Y120396D01*
X1034796Y120396D01*
X1016508Y138684D01*
X1281684Y138684D02*
X1282700Y139700D01*
X1016508Y138684D02*
X1016000Y139700D01*
X774192Y800100D02*
X774192Y812292D01*
X774192Y800100D02*
X749808Y775716D01*
X774192Y812292D02*
X774700Y812800D01*
X749808Y775716D02*
X749300Y774700D01*
X495300Y406400D02*
X495300Y330200D01*
X495300Y406908D02*
X470916Y406908D01*
X469900Y406400D01*
X495300Y406400D02*
X495300Y406908D01*
X838200Y406400D02*
X838200Y390144D01*
X838200Y330200D01*
X838200Y390144D02*
X961644Y390144D01*
X977900Y406400D01*
X1037844Y547116D02*
X1040892Y547116D01*
X1037844Y547116D02*
X963168Y621792D01*
X914400Y621792D01*
X1040892Y547116D02*
X1041400Y546100D01*
X914400Y621792D02*
X914400Y622300D01*
X978408Y483108D02*
X978408Y406908D01*
X978408Y483108D02*
X1041400Y546100D01*
X978408Y406908D02*
X977900Y406400D01*
X679704Y329184D02*
X673608Y329184D01*
X679704Y329184D02*
X694944Y313944D01*
X822960Y313944D01*
X838200Y329184D01*
X673608Y329184D02*
X673100Y330200D01*
X838200Y330200D02*
X838200Y329184D01*
X1014984Y166116D02*
X1014984Y140208D01*
X1014984Y166116D02*
X1004316Y176784D01*
X1004316Y329184D01*
X1014984Y140208D02*
X1016000Y139700D01*
X1004316Y329184D02*
X1003300Y330200D01*
X547116Y813816D02*
X509016Y813816D01*
X547116Y813816D02*
X558800Y825500D01*
X509016Y813816D02*
X508000Y812800D01*
X367284Y775716D02*
X341376Y775716D01*
X292608Y824484D01*
X367284Y775716D02*
X368300Y774700D01*
X292608Y824484D02*
X292100Y825500D01*
X57912Y862584D02*
X51816Y862584D01*
X57912Y862584D02*
X134112Y786384D01*
X204216Y786384D01*
X215900Y774700D01*
X51816Y862584D02*
X50800Y863600D01*
X214884Y161544D02*
X214884Y140208D01*
X214884Y161544D02*
X166116Y210312D01*
X166116Y228600D01*
X214884Y140208D02*
X215900Y139700D01*
X166116Y228600D02*
X165100Y228600D01*
X647700Y228600D02*
X659892Y228600D01*
X691896Y196596D02*
X748284Y140208D01*
X691896Y196596D02*
X659892Y228600D01*
X748284Y140208D02*
X749300Y139700D01*
X406908Y214884D02*
X406908Y228600D01*
X406908Y214884D02*
X481584Y140208D01*
X406908Y228600D02*
X406400Y228600D01*
X481584Y140208D02*
X482600Y139700D01*
X676656Y181356D02*
X691896Y196596D01*
X676656Y181356D02*
X580644Y181356D01*
X571500Y190500D01*
X172212Y405384D02*
X166116Y405384D01*
X172212Y405384D02*
X187452Y390144D01*
X289560Y390144D01*
X304800Y405384D01*
X166116Y405384D02*
X165100Y406400D01*
X304800Y406400D02*
X304800Y405384D01*
X902208Y563880D02*
X902208Y583692D01*
X902208Y563880D02*
X902208Y521208D01*
X902208Y583692D02*
X914400Y595884D01*
X902208Y521208D02*
X901700Y520700D01*
X914400Y595884D02*
X914400Y596900D01*
X914400Y635508D02*
X914400Y660400D01*
X914400Y635508D02*
X905256Y626364D01*
X905256Y606552D01*
X914400Y597408D01*
X914400Y596900D01*
X1011936Y547116D02*
X1014984Y547116D01*
X1011936Y547116D02*
X995172Y563880D01*
X902208Y563880D01*
X1014984Y547116D02*
X1016000Y546100D01*
X813816Y862584D02*
X737616Y862584D01*
X813816Y862584D02*
X850900Y825500D01*
X737616Y862584D02*
X736600Y863600D01*
X1118616Y838200D02*
X1118616Y826008D01*
X1118616Y838200D02*
X1143000Y862584D01*
X1118616Y826008D02*
X1117600Y825500D01*
X1143000Y862584D02*
X1143000Y863600D01*
X1094232Y862584D02*
X1004316Y862584D01*
X1094232Y862584D02*
X1118616Y838200D01*
X1004316Y862584D02*
X1003300Y863600D01*
X1054608Y330708D02*
X1118616Y330708D01*
X1143000Y355092D01*
X1054608Y330708D02*
X1054100Y330200D01*
X1143000Y355092D02*
X1219200Y355092D01*
X1219200Y355600D01*
X1143000Y355600D02*
X1143000Y355092D01*
X1267968Y405384D02*
X1307592Y405384D01*
X1267968Y405384D02*
X1219200Y356616D01*
X1307592Y405384D02*
X1308100Y406400D01*
X1219200Y356616D02*
X1219200Y355600D01*
X1129284Y140208D02*
X1053084Y140208D01*
X1016508Y176784D01*
X1129284Y140208D02*
X1130300Y139700D01*
X1016508Y176784D02*
X1016000Y177800D01*
X1251204Y138684D02*
X1257300Y138684D01*
X1251204Y138684D02*
X1235964Y123444D01*
X1146048Y123444D01*
X1130808Y138684D01*
X1257300Y138684D02*
X1257300Y139700D01*
X1130808Y138684D02*
X1130300Y139700D01*
X1053084Y289560D02*
X1053084Y329184D01*
X1053084Y289560D02*
X1016508Y252984D01*
X1016508Y178308D01*
X1053084Y329184D02*
X1054100Y330200D01*
X1016508Y178308D02*
X1016000Y177800D01*
X547116Y862584D02*
X470916Y862584D01*
X547116Y862584D02*
X584200Y825500D01*
X470916Y862584D02*
X469900Y863600D01*
X280416Y862584D02*
X204216Y862584D01*
X280416Y862584D02*
X317500Y825500D01*
X204216Y862584D02*
X203200Y863600D01*
X82296Y864108D02*
X76200Y864108D01*
X82296Y864108D02*
X97536Y879348D01*
X187452Y879348D01*
X203200Y863600D01*
X76200Y863600D02*
X76200Y864108D01*
X463296Y864108D02*
X469392Y864108D01*
X463296Y864108D02*
X448056Y879348D01*
X358140Y879348D01*
X342900Y864108D01*
X469392Y864108D02*
X469900Y863600D01*
X342900Y863600D02*
X342900Y864108D01*
X519684Y140208D02*
X595884Y140208D01*
X519684Y140208D02*
X483108Y176784D01*
X595884Y140208D02*
X596900Y139700D01*
X483108Y176784D02*
X482600Y177800D01*
X717804Y140208D02*
X723900Y140208D01*
X717804Y140208D02*
X702564Y155448D01*
X612648Y155448D01*
X596900Y139700D01*
X723900Y139700D02*
X723900Y140208D01*
X70104Y140208D02*
X64008Y140208D01*
X70104Y140208D02*
X85344Y155448D01*
X175260Y155448D01*
X190500Y140208D01*
X64008Y140208D02*
X63500Y139700D01*
X190500Y139700D02*
X190500Y140208D01*
X252984Y140208D02*
X329184Y140208D01*
X252984Y140208D02*
X216408Y176784D01*
X329184Y140208D02*
X330200Y139700D01*
X216408Y176784D02*
X215900Y177800D01*
X374904Y330708D02*
X381000Y330708D01*
X374904Y330708D02*
X359664Y345948D01*
X352044Y345948D01*
X339852Y333756D01*
X339852Y155448D02*
X339852Y149352D01*
X339852Y155448D02*
X339852Y333756D01*
X339852Y149352D02*
X330200Y139700D01*
X381000Y330200D02*
X381000Y330708D01*
X451104Y140208D02*
X457200Y140208D01*
X451104Y140208D02*
X435864Y155448D01*
X339852Y155448D01*
X457200Y140208D02*
X457200Y139700D01*
X146304Y330708D02*
X140208Y330708D01*
X146304Y330708D02*
X202692Y387096D01*
X356616Y387096D01*
X365760Y396240D01*
X365760Y612648D01*
X330708Y647700D01*
X140208Y330708D02*
X139700Y330200D01*
X330200Y647700D02*
X330708Y647700D01*
X356616Y329184D02*
X362712Y329184D01*
X426720Y265176D01*
X594360Y265176D01*
X669036Y190500D01*
X673100Y190500D01*
X356616Y329184D02*
X355600Y330200D01*
X890016Y140208D02*
X940308Y190500D01*
X890016Y140208D02*
X889000Y139700D01*
X939800Y190500D02*
X940308Y190500D01*
X381000Y399288D02*
X381000Y406400D01*
X381000Y399288D02*
X512064Y268224D01*
X637032Y268224D01*
X749808Y155448D01*
X873252Y155448D01*
X889000Y139700D01*
X355092Y406908D02*
X355092Y431292D01*
X289560Y496824D01*
X289560Y612648D01*
X254508Y647700D01*
X355092Y406908D02*
X355600Y406400D01*
X254508Y647700D02*
X254000Y647700D01*
X469392Y387096D02*
X469392Y330708D01*
X469392Y387096D02*
X416052Y440436D01*
X416052Y573024D01*
X339852Y649224D01*
X339852Y652272D01*
X333756Y658368D01*
X239268Y658368D01*
X228600Y647700D01*
X469392Y330708D02*
X469900Y330200D01*
X547116Y362712D02*
X547116Y405384D01*
X547116Y362712D02*
X667512Y242316D01*
X822960Y242316D01*
X970788Y390144D01*
X1031748Y390144D01*
X1043940Y402336D01*
X1043940Y416052D01*
X1124712Y496824D01*
X1153668Y496824D01*
X1181100Y524256D01*
X1181100Y812800D01*
X547116Y405384D02*
X546100Y406400D01*
X699516Y362712D02*
X699516Y330708D01*
X699516Y362712D02*
X882396Y545592D01*
X882396Y693420D01*
X938784Y749808D01*
X938784Y812292D01*
X699516Y330708D02*
X698500Y330200D01*
X938784Y812292D02*
X939800Y812800D01*
X493776Y484632D02*
X647700Y330708D01*
X493776Y484632D02*
X478536Y484632D01*
X467868Y495300D01*
X467868Y650748D01*
X454152Y664464D01*
X195072Y664464D01*
X178308Y647700D01*
X647700Y330708D02*
X647700Y330200D01*
X178308Y647700D02*
X177800Y647700D01*
X406908Y813816D02*
X406908Y826008D01*
X444500Y863600D01*
X406908Y813816D02*
X406400Y812800D01*
X856488Y329184D02*
X862584Y329184D01*
X856488Y329184D02*
X838200Y310896D01*
X672084Y310896D01*
X656844Y326136D01*
X656844Y341376D01*
X513588Y484632D01*
X504444Y484632D01*
X492252Y496824D01*
X492252Y726948D01*
X406400Y812800D01*
X863600Y330200D02*
X862584Y329184D01*
X533400Y416052D02*
X530352Y416052D01*
X461772Y484632D01*
X454152Y484632D01*
X441960Y496824D01*
X441960Y573024D01*
X365760Y649224D01*
X365760Y652272D01*
X356616Y661416D01*
X202692Y661416D01*
X187452Y646176D01*
X187452Y643128D01*
X181356Y637032D01*
X138684Y637032D01*
X128016Y647700D01*
X127000Y647700D01*
D20*
X533400Y416052D03*
D19*
X888492Y406908D02*
X888492Y624840D01*
X888492Y406908D02*
X889000Y406400D01*
D20*
X888492Y624840D03*
D19*
X729996Y493776D02*
X623316Y493776D01*
D20*
X729996Y493776D03*
X623316Y493776D03*
D19*
X405384Y495300D02*
X405384Y451104D01*
X368808Y414528D01*
X368808Y394716D01*
X320040Y345948D01*
X281940Y345948D01*
X190500Y254508D01*
X405384Y495300D02*
X406400Y495300D01*
X190500Y254508D02*
X190500Y254000D01*
X457200Y495300D02*
X463296Y495300D01*
X536448Y422148D01*
X550164Y422148D01*
X638556Y333756D01*
X638556Y288036D01*
X672084Y254508D01*
X673100Y254000D01*
X1231392Y149352D02*
X1231392Y140208D01*
X1231392Y149352D02*
X1143000Y237744D01*
X1143000Y254000D01*
X1231392Y140208D02*
X1231900Y139700D01*
X509016Y495300D02*
X509016Y516636D01*
X583692Y591312D01*
X1030224Y257556D02*
X1139952Y257556D01*
X1143000Y254508D01*
X509016Y495300D02*
X508000Y495300D01*
X1143000Y254508D02*
X1143000Y254000D01*
D20*
X583692Y591312D03*
X1030224Y257556D03*
D19*
X1168908Y749808D02*
X1168908Y862584D01*
X1168400Y863600D01*
X1168908Y749808D02*
X1168400Y749300D01*
X597408Y554736D02*
X592836Y554736D01*
X597408Y554736D02*
X780288Y737616D01*
X917448Y737616D01*
D20*
X592836Y554736D03*
X917448Y737616D03*
D19*
X900684Y790956D02*
X900684Y862584D01*
X900684Y790956D02*
X876300Y766572D01*
X876300Y749300D01*
X900684Y862584D02*
X901700Y863600D01*
X589788Y548640D02*
X589788Y525780D01*
X589788Y548640D02*
X586740Y551688D01*
X586740Y557784D01*
X777240Y748284D01*
X876300Y748284D01*
X876300Y749300D01*
D20*
X589788Y525780D03*
D19*
X675132Y822960D02*
X635508Y862584D01*
X675132Y822960D02*
X676656Y822960D01*
X723900Y775716D01*
X723900Y749300D01*
X635508Y862584D02*
X635000Y863600D01*
X583692Y568452D02*
X583692Y495300D01*
X583692Y568452D02*
X600456Y585216D01*
X600456Y624840D01*
X723900Y748284D01*
X584200Y495300D02*
X583692Y495300D01*
X723900Y748284D02*
X723900Y749300D01*
X102108Y608076D02*
X102108Y495300D01*
X102108Y608076D02*
X117348Y623316D01*
X117348Y659892D01*
X281940Y824484D01*
X281940Y829056D01*
X288036Y835152D01*
X295656Y835152D01*
X307848Y822960D01*
X307848Y821436D01*
X313944Y815340D01*
X320040Y815340D01*
X333756Y829056D01*
X333756Y874776D01*
X341376Y882396D01*
X938784Y882396D01*
X1135380Y685800D01*
X1143000Y685800D01*
X102108Y495300D02*
X101600Y495300D01*
X426720Y216408D02*
X431292Y216408D01*
X524256Y123444D01*
X893064Y123444D01*
X967740Y198120D01*
X967740Y339852D01*
X998220Y370332D01*
X1184148Y370332D01*
X1219200Y405384D01*
X1219200Y406400D01*
D20*
X426720Y216408D03*
D19*
X976884Y202692D02*
X976884Y329184D01*
X976884Y202692D02*
X894588Y120396D01*
X260604Y120396D01*
X176784Y204216D01*
X176784Y272796D01*
X129540Y320040D01*
X129540Y448056D01*
X176784Y495300D01*
X976884Y329184D02*
X977900Y330200D01*
X177800Y495300D02*
X176784Y495300D01*
X457200Y509016D02*
X457200Y647700D01*
X880872Y291084D02*
X914400Y291084D01*
X1004316Y381000D01*
X1143000Y381000D01*
D20*
X457200Y509016D03*
X880872Y291084D03*
D19*
X786384Y550164D02*
X601980Y550164D01*
D20*
X601980Y550164D03*
X786384Y550164D03*
D19*
X559308Y637032D02*
X559308Y647700D01*
X559308Y637032D02*
X592836Y603504D01*
X592836Y582168D01*
X574548Y563880D01*
X574548Y490728D01*
X580644Y484632D01*
X729996Y484632D01*
X871728Y626364D01*
X559308Y647700D02*
X558800Y647700D01*
D20*
X871728Y626364D03*
D19*
X585216Y647700D02*
X585216Y813816D01*
X624840Y853440D01*
X624840Y873252D01*
X630936Y879348D01*
X905256Y879348D01*
X1133856Y650748D01*
X1133856Y518160D01*
X1143000Y509016D01*
X585216Y647700D02*
X584200Y647700D01*
X1143000Y509016D02*
X1143000Y508000D01*
M02*
