G04 EAGLE Gerber RS-274X export*
G75*
%MOMM*%
%FSLAX34Y34*%
%LPD*%
%INSoldermask Top*%
%IPPOS*%
%AMOC8*
5,1,8,0,0,1.08239X$1,22.5*%
G01*
%ADD10C,1.524000*%
%ADD11P,1.649562X8X202.500000*%
%ADD12P,1.649562X8X22.500000*%
%ADD13C,1.676400*%
%ADD14C,3.503200*%
%ADD15C,1.727200*%
%ADD16C,3.505200*%
%ADD17P,1.649562X8X292.500000*%
%ADD18P,1.649562X8X112.500000*%
%ADD19P,2.144431X8X22.500000*%
%ADD20P,2.144431X8X202.500000*%
%ADD21C,0.959600*%


D10*
X50800Y56896D02*
X50800Y70104D01*
X101600Y70104D02*
X101600Y56896D01*
X63500Y133096D02*
X63500Y146304D01*
X88900Y146304D02*
X88900Y133096D01*
X215900Y933196D02*
X215900Y946404D01*
X165100Y946404D02*
X165100Y933196D01*
X203200Y870204D02*
X203200Y856996D01*
X177800Y856996D02*
X177800Y870204D01*
X317500Y70104D02*
X317500Y56896D01*
X368300Y56896D02*
X368300Y70104D01*
X330200Y133096D02*
X330200Y146304D01*
X355600Y146304D02*
X355600Y133096D01*
X584200Y70104D02*
X584200Y56896D01*
X635000Y56896D02*
X635000Y70104D01*
X596900Y133096D02*
X596900Y146304D01*
X622300Y146304D02*
X622300Y133096D01*
X850900Y70104D02*
X850900Y56896D01*
X901700Y56896D02*
X901700Y70104D01*
X863600Y133096D02*
X863600Y146304D01*
X889000Y146304D02*
X889000Y133096D01*
X1117600Y70104D02*
X1117600Y56896D01*
X1168400Y56896D02*
X1168400Y70104D01*
X1130300Y133096D02*
X1130300Y146304D01*
X1155700Y146304D02*
X1155700Y133096D01*
X1282700Y933196D02*
X1282700Y946404D01*
X1231900Y946404D02*
X1231900Y933196D01*
X1270000Y870204D02*
X1270000Y856996D01*
X1244600Y856996D02*
X1244600Y870204D01*
X1016000Y933196D02*
X1016000Y946404D01*
X965200Y946404D02*
X965200Y933196D01*
X1003300Y870204D02*
X1003300Y856996D01*
X977900Y856996D02*
X977900Y870204D01*
X749300Y933196D02*
X749300Y946404D01*
X698500Y946404D02*
X698500Y933196D01*
X736600Y870204D02*
X736600Y856996D01*
X711200Y856996D02*
X711200Y870204D01*
X482600Y933196D02*
X482600Y946404D01*
X431800Y946404D02*
X431800Y933196D01*
X469900Y870204D02*
X469900Y856996D01*
X444500Y856996D02*
X444500Y870204D01*
X165100Y70104D02*
X165100Y56896D01*
X215900Y56896D02*
X215900Y70104D01*
X165100Y133096D02*
X165100Y146304D01*
X215900Y146304D02*
X215900Y133096D01*
X190500Y133096D02*
X190500Y146304D01*
X431800Y70104D02*
X431800Y56896D01*
X482600Y56896D02*
X482600Y70104D01*
X431800Y133096D02*
X431800Y146304D01*
X482600Y146304D02*
X482600Y133096D01*
X457200Y133096D02*
X457200Y146304D01*
X698500Y70104D02*
X698500Y56896D01*
X749300Y56896D02*
X749300Y70104D01*
X698500Y133096D02*
X698500Y146304D01*
X749300Y146304D02*
X749300Y133096D01*
X723900Y133096D02*
X723900Y146304D01*
X965200Y70104D02*
X965200Y56896D01*
X1016000Y56896D02*
X1016000Y70104D01*
X965200Y133096D02*
X965200Y146304D01*
X1016000Y146304D02*
X1016000Y133096D01*
X990600Y133096D02*
X990600Y146304D01*
X1231900Y70104D02*
X1231900Y56896D01*
X1282700Y56896D02*
X1282700Y70104D01*
X1231900Y133096D02*
X1231900Y146304D01*
X1282700Y146304D02*
X1282700Y133096D01*
X1257300Y133096D02*
X1257300Y146304D01*
X1168400Y933196D02*
X1168400Y946404D01*
X1117600Y946404D02*
X1117600Y933196D01*
X1168400Y870204D02*
X1168400Y856996D01*
X1117600Y856996D02*
X1117600Y870204D01*
X1143000Y870204D02*
X1143000Y856996D01*
X901700Y933196D02*
X901700Y946404D01*
X850900Y946404D02*
X850900Y933196D01*
X901700Y870204D02*
X901700Y856996D01*
X850900Y856996D02*
X850900Y870204D01*
X876300Y870204D02*
X876300Y856996D01*
X635000Y933196D02*
X635000Y946404D01*
X584200Y946404D02*
X584200Y933196D01*
X635000Y870204D02*
X635000Y856996D01*
X584200Y856996D02*
X584200Y870204D01*
X609600Y870204D02*
X609600Y856996D01*
X368300Y933196D02*
X368300Y946404D01*
X317500Y946404D02*
X317500Y933196D01*
X368300Y870204D02*
X368300Y856996D01*
X317500Y856996D02*
X317500Y870204D01*
X342900Y870204D02*
X342900Y856996D01*
X101600Y933196D02*
X101600Y946404D01*
X50800Y946404D02*
X50800Y933196D01*
X101600Y870204D02*
X101600Y856996D01*
X50800Y856996D02*
X50800Y870204D01*
X76200Y870204D02*
X76200Y856996D01*
D11*
X241300Y177800D03*
X215900Y177800D03*
X508000Y177800D03*
X482600Y177800D03*
X774700Y177800D03*
X749300Y177800D03*
X1041400Y177800D03*
X1016000Y177800D03*
X1308100Y177800D03*
X1282700Y177800D03*
D12*
X1092200Y825500D03*
X1117600Y825500D03*
X825500Y825500D03*
X850900Y825500D03*
X558800Y825500D03*
X584200Y825500D03*
X292100Y825500D03*
X317500Y825500D03*
X25400Y825500D03*
X50800Y825500D03*
D13*
X76200Y495300D03*
X101600Y495300D03*
X127000Y495300D03*
X152400Y495300D03*
X177800Y495300D03*
X203200Y495300D03*
X228600Y495300D03*
X254000Y495300D03*
X279400Y495300D03*
X304800Y495300D03*
X330200Y495300D03*
X355600Y495300D03*
X355600Y647700D03*
X330200Y647700D03*
X304800Y647700D03*
X279400Y647700D03*
X254000Y647700D03*
X228600Y647700D03*
X203200Y647700D03*
X177800Y647700D03*
X152400Y647700D03*
X127000Y647700D03*
X101600Y647700D03*
X50800Y495300D03*
X76200Y647700D03*
X50800Y647700D03*
X25400Y495300D03*
X25400Y647700D03*
X381000Y495300D03*
X381000Y647700D03*
X406400Y495300D03*
X431800Y495300D03*
X457200Y495300D03*
X482600Y495300D03*
X508000Y495300D03*
X533400Y495300D03*
X558800Y495300D03*
X584200Y495300D03*
X609600Y495300D03*
X609600Y647700D03*
X584200Y647700D03*
X558800Y647700D03*
X533400Y647700D03*
X508000Y647700D03*
X482600Y647700D03*
X457200Y647700D03*
X431800Y647700D03*
X406400Y647700D03*
X482600Y520700D03*
X482600Y571500D03*
X482600Y596900D03*
X482600Y546100D03*
X482600Y622300D03*
X50800Y622300D03*
X101600Y622300D03*
X127000Y622300D03*
X152400Y622300D03*
X88900Y527050D03*
X114300Y527050D03*
X139700Y527050D03*
X165100Y527050D03*
X190500Y527050D03*
D12*
X63500Y177800D03*
X165100Y177800D03*
D10*
X139700Y323596D02*
X139700Y336804D01*
X165100Y336804D02*
X165100Y323596D01*
X165100Y399796D02*
X165100Y413004D01*
X139700Y413004D02*
X139700Y399796D01*
X190500Y336804D02*
X190500Y323596D01*
X215900Y323596D02*
X215900Y336804D01*
X190500Y399796D02*
X190500Y413004D01*
X215900Y413004D02*
X215900Y399796D01*
X304800Y336804D02*
X304800Y323596D01*
X330200Y323596D02*
X330200Y336804D01*
X330200Y399796D02*
X330200Y413004D01*
X304800Y413004D02*
X304800Y399796D01*
X355600Y336804D02*
X355600Y323596D01*
X381000Y323596D02*
X381000Y336804D01*
X355600Y399796D02*
X355600Y413004D01*
X381000Y413004D02*
X381000Y399796D01*
X469900Y336804D02*
X469900Y323596D01*
X495300Y323596D02*
X495300Y336804D01*
X495300Y399796D02*
X495300Y413004D01*
X469900Y413004D02*
X469900Y399796D01*
X520700Y336804D02*
X520700Y323596D01*
X546100Y323596D02*
X546100Y336804D01*
X520700Y399796D02*
X520700Y413004D01*
X546100Y413004D02*
X546100Y399796D01*
X647700Y336804D02*
X647700Y323596D01*
X673100Y323596D02*
X673100Y336804D01*
X673100Y399796D02*
X673100Y413004D01*
X647700Y413004D02*
X647700Y399796D01*
X698500Y336804D02*
X698500Y323596D01*
X723900Y323596D02*
X723900Y336804D01*
X698500Y399796D02*
X698500Y413004D01*
X723900Y413004D02*
X723900Y399796D01*
X812800Y336804D02*
X812800Y323596D01*
X838200Y323596D02*
X838200Y336804D01*
X838200Y399796D02*
X838200Y413004D01*
X812800Y413004D02*
X812800Y399796D01*
X863600Y336804D02*
X863600Y323596D01*
X889000Y323596D02*
X889000Y336804D01*
X863600Y399796D02*
X863600Y413004D01*
X889000Y413004D02*
X889000Y399796D01*
D12*
X279400Y190500D03*
X381000Y190500D03*
X571500Y190500D03*
X673100Y190500D03*
X838200Y190500D03*
X939800Y190500D03*
X1104900Y190500D03*
X1206500Y190500D03*
D11*
X1282700Y812800D03*
X1181100Y812800D03*
X1041400Y812800D03*
X939800Y812800D03*
X774700Y812800D03*
X673100Y812800D03*
X508000Y812800D03*
X406400Y812800D03*
X241300Y812800D03*
X139700Y812800D03*
D14*
X1275000Y750000D03*
X75000Y250000D03*
X75000Y750000D03*
X1275000Y250000D03*
D15*
X990600Y538480D02*
X990600Y553720D01*
X1016000Y553720D02*
X1016000Y538480D01*
X1041400Y538480D02*
X1041400Y553720D01*
D16*
X1016000Y695960D03*
D17*
X914400Y685800D03*
X914400Y660400D03*
X914400Y622300D03*
X914400Y596900D03*
D15*
X1224280Y622300D02*
X1239520Y622300D01*
X1239520Y647700D02*
X1224280Y647700D01*
X1300480Y406400D02*
X1315720Y406400D01*
X1315720Y431800D02*
X1300480Y431800D01*
X1300480Y457200D02*
X1315720Y457200D01*
D18*
X1143000Y584200D03*
X1143000Y685800D03*
D15*
X1300480Y622300D02*
X1315720Y622300D01*
X1315720Y647700D02*
X1300480Y647700D01*
D10*
X977900Y336804D02*
X977900Y323596D01*
X1003300Y323596D02*
X1003300Y336804D01*
X1003300Y399796D02*
X1003300Y413004D01*
X977900Y413004D02*
X977900Y399796D01*
X1028700Y336804D02*
X1028700Y323596D01*
X1054100Y323596D02*
X1054100Y336804D01*
X1028700Y399796D02*
X1028700Y413004D01*
X1054100Y413004D02*
X1054100Y399796D01*
D12*
X876300Y520700D03*
X901700Y520700D03*
X673100Y660400D03*
X774700Y660400D03*
D15*
X1211580Y355600D02*
X1226820Y355600D01*
X1226820Y381000D02*
X1211580Y381000D01*
X1211580Y406400D02*
X1226820Y406400D01*
X1226820Y431800D02*
X1211580Y431800D01*
X1211580Y457200D02*
X1226820Y457200D01*
X1226820Y482600D02*
X1211580Y482600D01*
D19*
X165100Y228600D03*
X215900Y228600D03*
X190500Y254000D03*
X406400Y228600D03*
X457200Y228600D03*
X431800Y254000D03*
X647700Y228600D03*
X698500Y228600D03*
X673100Y254000D03*
X901700Y228600D03*
X952500Y228600D03*
X927100Y254000D03*
X1117600Y228600D03*
X1168400Y228600D03*
X1143000Y254000D03*
D20*
X1193800Y774700D03*
X1143000Y774700D03*
X1168400Y749300D03*
X901700Y774700D03*
X850900Y774700D03*
X876300Y749300D03*
X749300Y774700D03*
X698500Y774700D03*
X723900Y749300D03*
X368300Y774700D03*
X317500Y774700D03*
X342900Y749300D03*
X215900Y774700D03*
X165100Y774700D03*
X190500Y749300D03*
D15*
X1135380Y355600D02*
X1150620Y355600D01*
X1150620Y381000D02*
X1135380Y381000D01*
X1135380Y406400D02*
X1150620Y406400D01*
X1150620Y431800D02*
X1135380Y431800D01*
X1135380Y457200D02*
X1150620Y457200D01*
X1150620Y482600D02*
X1135380Y482600D01*
X1135380Y508000D02*
X1150620Y508000D01*
D21*
X533400Y416052D03*
X888492Y624840D03*
X729996Y493776D03*
X623316Y493776D03*
X583692Y591312D03*
X1030224Y257556D03*
X592836Y554736D03*
X917448Y737616D03*
X589788Y525780D03*
X426720Y216408D03*
X457200Y509016D03*
X880872Y291084D03*
X601980Y550164D03*
X786384Y550164D03*
X871728Y626364D03*
M02*
